<svg version="1.1" xmlns="http://www.w3.org/2000/svg" xmlns:xlink="http://www.w3.org/1999/xlink" width="15" height="14" viewBox="0,0,256,238.92188"><g fill="#ffffff" fill-rule="nonzero" stroke="none" stroke-width="1" stroke-linecap="butt" stroke-linejoin="miter" stroke-miterlimit="10" stroke-dasharray="" stroke-dashoffset="0" font-family="none" font-weight="none" font-size="none" text-anchor="none" style="mix-blend-mode: normal"><g transform="translate(-0.00251,-0.00697) scale(17.06667,17.06667)"><path d="M13.9935,0.62154c-0.0054,-0.02591 -0.018,-0.04976 -0.0364,-0.06875c-0.0184,-0.01899 -0.0419,-0.03234 -0.0676,-0.03848c-1.7159,-0.41953 -5.68067,1.07549 -7.82871,3.22265c-0.38313,0.38003 -0.7324,0.79272 -1.04385,1.2334c-0.6624,-0.05859 -1.32481,-0.00967 -1.88936,0.23643c-1.59287,0.70107 -2.05664,2.53037 -2.18583,3.31728c-0.00733,0.04307 -0.00456,0.08726 0.00808,0.12908c0.01264,0.04182 0.03481,0.08014 0.06477,0.11194c0.02995,0.0318 0.06688,0.05622 0.10787,0.07134c0.041,0.01511 0.08494,0.02051 0.12837,0.01577l2.55791,-0.28213c0.00182,0.19285 0.01346,0.38548 0.03486,0.57715c0.01287,0.1331 0.07196,0.25748 0.16699,0.35156l0.99053,0.98822c0.09416,0.0949 0.2185,0.1539 0.35156,0.167c0.1906,0.0213 0.38215,0.0329 0.57393,0.0348l-0.28067,2.5547c-0.00468,0.0434 0.00076,0.0873 0.0159,0.1283c0.01513,0.041 0.03955,0.0779 0.07134,0.1078c0.03179,0.0299 0.07008,0.0521 0.11187,0.0648c0.0418,0.0126 0.08596,0.0155 0.12902,0.0082c0.78545,-0.126 2.61797,-0.5898 3.31494,-2.1826c0.24609,-0.5646 0.29648,-1.2238 0.23965,-1.88294c0.44174,-0.31148 0.85554,-0.66084 1.23664,-1.04414c2.1548,-2.14395 3.6413,-6.02021 3.2282,-7.82138zM8.61547,5.8853c-0.19676,-0.19663 -0.33078,-0.4472 -0.38512,-0.72001c-0.05433,-0.27281 -0.02654,-0.5556 0.07987,-0.81262c0.10641,-0.25701 0.28665,-0.47669 0.51793,-0.63125c0.23128,-0.15456 0.5032,-0.23706 0.78137,-0.23706c0.27816,0 0.55008,0.0825 0.78138,0.23706c0.2313,0.15456 0.4115,0.37424 0.5179,0.63125c0.1064,0.25702 0.1342,0.53981 0.0799,0.81262c-0.0544,0.27281 -0.1884,0.52338 -0.3851,0.72001c-0.1305,0.13066 -0.2855,0.23432 -0.456,0.30504c-0.1706,0.07072 -0.35344,0.10712 -0.53808,0.10712c-0.18465,0 -0.36749,-0.0364 -0.53806,-0.10712c-0.17056,-0.07072 -0.32551,-0.17438 -0.45599,-0.30504z"></path></g></g></svg>