<svg version="1.1" xmlns="http://www.w3.org/2000/svg" xmlns:xlink="http://www.w3.org/1999/xlink" width="15" height="16" viewBox="0,0,240,256"><defs><clipPath id="clip-1"><rect x="0.00015" y="0.49997" width="15" height="15" id="clip0_0_449" fill="none"></rect></clipPath></defs><g fill="none" fill-rule="nonzero" stroke="none" stroke-width="1" stroke-linecap="butt" stroke-linejoin="miter" stroke-miterlimit="10" stroke-dasharray="" stroke-dashoffset="0" font-family="none" font-weight="none" font-size="none" text-anchor="none" style="mix-blend-mode: normal"><g transform="translate(-0.00244,0.00046) scale(16,16)"><g clip-path="url(#clip-1)"><path d="M3.047,15.0316h-0.9375c-0.18648,0 -0.36533,-0.0741 -0.49719,-0.2059c-0.13186,-0.1319 -0.20594,-0.3108 -0.20594,-0.4972v-4.2188c0,-0.18646 0.07408,-0.3653 0.20594,-0.49717c0.13186,-0.13186 0.31071,-0.20594 0.49719,-0.20594h0.9375c0.18648,0 0.36532,0.07408 0.49718,0.20594c0.13186,0.13187 0.20594,0.31071 0.20594,0.49717v4.2188c0,0.1864 -0.07408,0.3653 -0.20594,0.4972c-0.13186,0.1318 -0.3107,0.2059 -0.49718,0.2059z" fill="#ffffff"></path><path d="M9.60953,15.0308h-0.9375c-0.18648,0 -0.36533,-0.0741 -0.49719,-0.206c-0.13186,-0.1318 -0.20594,-0.3107 -0.20594,-0.4971v-7.03129c0,-0.18648 0.07408,-0.36533 0.20594,-0.49719c0.13186,-0.13186 0.31071,-0.20594 0.49719,-0.20594h0.9375c0.18648,0 0.36532,0.07408 0.49717,0.20594c0.1319,0.13186 0.206,0.31071 0.206,0.49719v7.03129c0,0.1864 -0.0741,0.3653 -0.206,0.4971c-0.13185,0.1319 -0.31069,0.206 -0.49717,0.206z" fill="#ffffff"></path><path d="M12.8907,15.0311h-0.9375c-0.1864,0 -0.3653,-0.074 -0.4971,-0.2059c-0.1319,-0.1319 -0.206,-0.3107 -0.206,-0.4972v-10.31248c0,-0.18648 0.0741,-0.36532 0.206,-0.49719c0.1318,-0.13186 0.3107,-0.20594 0.4971,-0.20594h0.9375c0.1865,0 0.3654,0.07408 0.4972,0.20594c0.1319,0.13187 0.206,0.31071 0.206,0.49719v10.31248c0,0.1865 -0.0741,0.3653 -0.206,0.4972c-0.1318,0.1319 -0.3107,0.2059 -0.4972,0.2059z" fill="#ffffff"></path><path d="M6.32825,15.031h-0.9375c-0.18648,0 -0.36533,-0.0741 -0.49719,-0.206c-0.13186,-0.1318 -0.20594,-0.3107 -0.20594,-0.4972v-12.6562c0,-0.18648 0.07408,-0.36533 0.20594,-0.49719c0.13186,-0.13186 0.31071,-0.20594 0.49719,-0.20594h0.9375c0.18648,0 0.36532,0.07408 0.49718,0.20594c0.13186,0.13186 0.20594,0.31071 0.20594,0.49719v12.6562c0,0.1865 -0.07408,0.3654 -0.20594,0.4972c-0.13186,0.1319 -0.3107,0.206 -0.49718,0.206z" fill="#ffffff"></path></g></g></g></svg>