<svg version="1.1" xmlns="http://www.w3.org/2000/svg" xmlns:xlink="http://www.w3.org/1999/xlink" width="15" height="16" viewBox="0,0,240,256"><g fill="#ffffff" fill-rule="nonzero" stroke="none" stroke-width="1" stroke-linecap="butt" stroke-linejoin="miter" stroke-miterlimit="10" stroke-dasharray="" stroke-dashoffset="0" font-family="none" font-weight="none" font-size="none" text-anchor="none" style="mix-blend-mode: normal"><g transform="translate(-0.00264,-0.00176) scale(16,16)"><path d="M12.5392,7.06262h-4.10152c-0.37296,0 -0.73064,-0.14816 -0.99437,-0.41188c-0.26372,-0.26372 -0.41188,-0.62141 -0.41188,-0.99437v-4.10156c0,-0.03108 -0.01234,-0.06089 -0.03432,-0.08286c-0.02198,-0.02198 -0.05178,-0.03433 -0.08286,-0.03433h-2.69532c-0.49728,0 -0.97419,0.19755 -1.32582,0.54918c-0.35163,0.35163 -0.54918,0.82854 -0.54918,1.32582v9.37498c0,0.4973 0.19755,0.9742 0.54918,1.3258c0.35163,0.3517 0.82854,0.5492 1.32582,0.5492h6.56247c0.4973,0 0.9742,-0.1975 1.3259,-0.5492c0.3516,-0.3516 0.5491,-0.8285 0.5491,-1.3258v-5.50779c0,-0.03108 -0.0123,-0.06089 -0.0343,-0.08287c-0.022,-0.02197 -0.0518,-0.03432 -0.0829,-0.03432z"></path><path d="M12.282,6.02597l-4.21316,-4.21319c-0.0082,-0.00814 -0.01862,-0.01368 -0.02995,-0.01592c-0.01133,-0.00224 -0.02308,-0.00108 -0.03375,0.00333c-0.01068,0.00442 -0.01981,0.01189 -0.02625,0.02148c-0.00645,0.00959 -0.00991,0.02087 -0.00996,0.03242v3.80303c0,0.12432 0.04939,0.24355 0.1373,0.33146c0.0879,0.08791 0.20713,0.13729 0.33145,0.13729h3.80302c0.0116,-0.00005 0.0228,-0.00351 0.0324,-0.00995c0.0096,-0.00644 0.0171,-0.01558 0.0215,-0.02625c0.0044,-0.01068 0.0056,-0.02242 0.0033,-0.03376c-0.0022,-0.01133 -0.0077,-0.02175 -0.0159,-0.02994z"></path></g></g></svg>