<svg version="1.1" xmlns="http://www.w3.org/2000/svg" xmlns:xlink="http://www.w3.org/1999/xlink" width="15" height="16" viewBox="0,0,240,256"><defs><clipPath id="clip-1"><rect x="0.00015" y="0.49995" width="15" height="15" id="clip0_0_443" fill="none"></rect></clipPath></defs><g fill="none" fill-rule="nonzero" stroke="none" stroke-width="1" stroke-linecap="butt" stroke-linejoin="miter" stroke-miterlimit="10" stroke-dasharray="" stroke-dashoffset="0" font-family="none" font-weight="none" font-size="none" text-anchor="none" style="mix-blend-mode: normal"><g transform="translate(-0.00244,0.00074) scale(16,16)"><g clip-path="url(#clip-1)"><path d="M13.7568,4.03136c-0.0337,-0.06565 -0.0825,-0.1224 -0.1424,-0.16562c-0.0598,-0.04323 -0.129,-0.07171 -0.2019,-0.08314c-0.073,-0.01142 -0.1476,-0.00545 -0.2177,0.01741c-0.0702,0.02286 -0.134,0.06198 -0.1862,0.11416l-1.8,1.80117c-0.0884,0.08708 -0.2075,0.13589 -0.3315,0.13589c-0.1241,0 -0.2432,-0.04881 -0.3315,-0.13589l-0.77815,-0.7793c-0.04354,-0.04352 -0.07807,-0.0952 -0.10164,-0.15208c-0.02356,-0.05688 -0.03569,-0.11784 -0.03569,-0.17941c0,-0.06157 0.01213,-0.12253 0.03569,-0.17941c0.02357,-0.05688 0.0581,-0.10855 0.10164,-0.15208l1.79235,-1.79268c0.0538,-0.05372 0.0936,-0.1197 0.1162,-0.19226c0.0226,-0.07255 0.0272,-0.14951 0.0134,-0.22423c-0.0138,-0.07472 -0.0455,-0.14497 -0.0925,-0.20471c-0.047,-0.05973 -0.1077,-0.10715 -0.1771,-0.13817c-1.3538,-0.60528 -3.04366,-0.28946 -4.10918,0.76816c-0.90528,0.89883 -1.1751,2.30332 -0.73975,3.85342c0.02347,0.08266 0.02361,0.1702 0.00039,0.25294c-0.02322,0.08273 -0.06888,0.15743 -0.13193,0.21581l-4.87734,4.45456c-0.19001,0.1706 -0.34327,0.3781 -0.45044,0.6099c-0.10716,0.2318 -0.16598,0.483 -0.17288,0.7383c-0.00689,0.2552 0.03829,0.5092 0.13279,0.7464c0.09451,0.2373 0.23634,0.4527 0.41687,0.6333c0.18052,0.1807 0.39595,0.3226 0.63313,0.4172c0.23719,0.0946 0.49116,0.1399 0.74642,0.1331c0.25527,-0.0068 0.50648,-0.0655 0.73831,-0.1725c0.23182,-0.1071 0.43941,-0.2603 0.61009,-0.4502l4.50235,-4.88819c0.05754,-0.06224 0.13097,-0.1076 0.21238,-0.13119c0.08142,-0.02359 0.16772,-0.02453 0.24963,-0.0027c0.44131,0.12092 0.89656,0.18366 1.35406,0.18663c0.9786,0 1.8372,-0.3167 2.4566,-0.92696c1.147,-1.12998 1.3219,-3.04658 0.7655,-4.12763zM2.91521,13.6006c-0.19295,0.0211 -0.38768,-0.0183 -0.55732,-0.1126c-0.16963,-0.0943 -0.30581,-0.239 -0.38974,-0.414c-0.08392,-0.175 -0.11146,-0.3718 -0.07881,-0.5631c0.03266,-0.1913 0.12389,-0.3678 0.26111,-0.5051c0.13723,-0.1372 0.31367,-0.2285 0.50499,-0.2613c0.19132,-0.0327 0.38807,-0.0052 0.56312,0.0787c0.17504,0.0838 0.31974,0.2199 0.41412,0.3896c0.09438,0.1696 0.1338,0.3643 0.1128,0.5572c-0.0231,0.2123 -0.11799,0.4104 -0.26897,0.5614c-0.15098,0.1511 -0.349,0.246 -0.5613,0.2692z" fill="#ffffff"></path></g></g></g></svg>