<svg version="1.1" xmlns="http://www.w3.org/2000/svg" xmlns:xlink="http://www.w3.org/1999/xlink" width="15" height="16" viewBox="0,0,240,256"><defs><clipPath id="clip-1"><rect x="0.00015" y="0.50002" width="15" height="15" id="clip0_0_446" fill="none"></rect></clipPath></defs><g fill="none" fill-rule="nonzero" stroke="none" stroke-width="1" stroke-linecap="butt" stroke-linejoin="miter" stroke-miterlimit="10" stroke-dasharray="" stroke-dashoffset="0" font-family="none" font-weight="none" font-size="none" text-anchor="none" style="mix-blend-mode: normal"><g transform="translate(-0.00244,-0.00037) scale(16,16)"><g clip-path="url(#clip-1)"><path d="M0.93762,11.5152c0,0.4351 0.17285,0.8524 0.48053,1.1601c0.30768,0.3077 0.72498,0.4806 1.1601,0.4806h9.84375c0.4351,0 0.8524,-0.1729 1.1601,-0.4806c0.3077,-0.3077 0.4805,-0.725 0.4805,-1.1601v-4.51169h-13.12498zM2.87122,9.28867c0,-0.2331 0.09259,-0.45666 0.25742,-0.62148c0.16483,-0.16483 0.38838,-0.25743 0.62148,-0.25743h1.40625c0.2331,0 0.45665,0.0926 0.62148,0.25743c0.16483,0.16482 0.25743,0.38838 0.25743,0.62148v0.58593c0,0.2331 -0.0926,0.4567 -0.25743,0.6215c-0.16483,0.1648 -0.38838,0.2574 -0.62148,0.2574h-1.40625c-0.2331,0 -0.45665,-0.0926 -0.62148,-0.2574c-0.16483,-0.1648 -0.25742,-0.3884 -0.25742,-0.6215z" fill="#ffffff"></path><path d="M12.422,2.84297h-9.84375c-0.43512,0 -0.85242,0.17285 -1.1601,0.48053c-0.30768,0.30768 -0.48053,0.72498 -0.48053,1.1601v0.76171h13.12498v-0.76171c0,-0.43512 -0.1728,-0.85242 -0.4805,-1.1601c-0.3077,-0.30768 -0.725,-0.48053 -1.1601,-0.48053z" fill="#ffffff"></path></g></g></g></svg>