<svg version="1.1" xmlns="http://www.w3.org/2000/svg" xmlns:xlink="http://www.w3.org/1999/xlink" width="15" height="16" viewBox="0,0,240,256"><defs><clipPath id="clip-1"><rect x="0.00006" y="0.50004" width="15" height="15" id="clip0_0_454" fill="none"></rect></clipPath></defs><g fill="none" fill-rule="nonzero" stroke="none" stroke-width="1" stroke-linecap="butt" stroke-linejoin="miter" stroke-miterlimit="10" stroke-dasharray="" stroke-dashoffset="0" font-family="none" font-weight="none" font-size="none" text-anchor="none" style="mix-blend-mode: normal"><g transform="translate(-0.00098,-0.00064) scale(16,16)"><g clip-path="url(#clip-1)"><path d="M7.66295,3.46754c-0.04362,-0.04172 -0.10165,-0.06501 -0.16201,-0.06501c-0.06036,0 -0.1184,0.02329 -0.16201,0.06501l-5.39356,5.15244c-0.0229,0.02191 -0.04113,0.04824 -0.05356,0.0774c-0.01244,0.02916 -0.01884,0.06053 -0.0188,0.09223l-0.00088,4.83579c0,0.2486 0.09877,0.487 0.27459,0.6629c0.17581,0.1758 0.41427,0.2746 0.66291,0.2746h2.81543c0.12432,0 0.24355,-0.0494 0.33146,-0.1373c0.0879,-0.0879 0.13729,-0.2072 0.13729,-0.3315v-3.9844c0,-0.0621 0.02469,-0.12175 0.06865,-0.1657c0.04395,-0.04395 0.10356,-0.06865 0.16572,-0.06865h2.34375c0.06216,0 0.12178,0.0247 0.16573,0.06865c0.04396,0.04395 0.06865,0.1036 0.06865,0.1657v3.9844c0,0.1243 0.04938,0.2436 0.13729,0.3315c0.08791,0.0879 0.20714,0.1373 0.33146,0.1373h2.81424c0.2487,0 0.4871,-0.0988 0.6629,-0.2746c0.1758,-0.1759 0.2746,-0.4143 0.2746,-0.6629v-4.83579c0.0001,-0.0317 -0.0063,-0.06307 -0.0188,-0.09223c-0.0124,-0.02916 -0.0306,-0.05549 -0.0535,-0.0774z" fill="#3182ce"></path><path d="M14.3826,7.65374l-2.1914,-2.09649v-3.18134c0,-0.12432 -0.0494,-0.24355 -0.1373,-0.33146c-0.0879,-0.08791 -0.2072,-0.13729 -0.3315,-0.13729h-1.4062c-0.1244,0 -0.2436,0.04938 -0.3315,0.13729c-0.08791,0.08791 -0.13729,0.20714 -0.13729,0.33146v0.9375l-1.69688,-1.62246c-0.15879,-0.16055 -0.39492,-0.25254 -0.65009,-0.25254c-0.2543,0 -0.48985,0.09199 -0.64864,0.25283l-6.23144,5.96191c-0.18223,0.17578 -0.20508,0.46494 -0.03926,0.65537c0.04164,0.04807 0.09263,0.08716 0.14985,0.1149c0.05723,0.02774 0.1195,0.04354 0.18303,0.04644c0.06353,0.00291 0.12698,-0.00714 0.1865,-0.02954c0.05952,-0.0224 0.11386,-0.05667 0.15971,-0.10074l6.0791,-5.80898c0.04362,-0.04173 0.10165,-0.06502 0.16201,-0.06502c0.06037,0 0.1184,0.02329 0.16202,0.06502l6.07967,5.80898c0.0896,0.08588 0.2095,0.13275 0.3336,0.13034c0.124,-0.00242 0.2421,-0.05393 0.3282,-0.14323c0.1799,-0.18633 0.165,-0.49395 -0.0222,-0.67295z" fill="#3182ce"></path></g></g></g></svg>