<svg version="1.1" xmlns="http://www.w3.org/2000/svg" xmlns:xlink="http://www.w3.org/1999/xlink" width="12" height="13" viewBox="0,0,236.29688,256"><g fill="#ffffff" fill-rule="nonzero" stroke="none" stroke-width="1" stroke-linecap="butt" stroke-linejoin="miter" stroke-miterlimit="10" stroke-dasharray="" stroke-dashoffset="0" font-family="none" font-weight="none" font-size="none" text-anchor="none" style="mix-blend-mode: normal"><g transform="translate(-0.00329,0.00767) scale(19.69231,19.69231)"><path d="M7.79627,2.01346c-0.45609,-0.49243 -1.09312,-0.7636 -1.79625,-0.7636c-0.70687,0 -1.34601,0.26953 -1.8,0.75891c-0.4589,0.49476 -0.6825,1.16719 -0.63,1.89328c0.10407,1.4325 1.19414,2.59781 2.43,2.59781c1.23586,0 2.32406,-1.16508 2.42977,-2.59734c0.0532,-0.71953 -0.1718,-1.39055 -0.63352,-1.88906z"></path><path d="M10.1249,11.7493h-8.25001c-0.10799,0.0014 -0.21493,-0.0212 -0.31304,-0.0664c-0.09811,-0.0451 -0.18494,-0.1115 -0.25415,-0.1944c-0.15234,-0.1821 -0.21375,-0.4308 -0.16828,-0.6823c0.19781,-1.09733 0.81516,-2.01912 1.78547,-2.66623c0.86203,-0.57445 1.95398,-0.89063 3.075,-0.89063c1.12101,0 2.21296,0.31641 3.07499,0.89063c0.97032,0.64687 1.58762,1.56867 1.78552,2.66603c0.0454,0.2515 -0.016,0.5001 -0.1683,0.6822c-0.0692,0.083 -0.156,0.1495 -0.2541,0.1946c-0.0982,0.0452 -0.2051,0.0679 -0.3131,0.0665z"></path></g></g></svg>