<svg width="27" height="26" viewBox="0 0 27 26" fill="none" xmlns="http://www.w3.org/2000/svg">
<path d="M5.34954 5.27877H21.5995C21.7894 5.27868 21.979 5.29072 22.1673 5.31482C22.1034 4.86682 21.9496 4.43637 21.7149 4.04945C21.4802 3.66252 21.1696 3.32713 20.8018 3.06349C20.434 2.79985 20.0166 2.61342 19.5748 2.51544C19.133 2.41747 18.676 2.40997 18.2312 2.49342L4.86712 4.77502H4.85188C4.01301 4.93543 3.26703 5.41005 2.7663 6.10193C3.5207 5.56534 4.42376 5.27757 5.34954 5.27877Z" fill="white"/>
<path d="M21.5997 6.4998H5.34973C4.48807 6.50074 3.66196 6.84345 3.05267 7.45274C2.44338 8.06203 2.10067 8.88813 2.09973 9.7498V19.4998C2.10067 20.3615 2.44338 21.1876 3.05267 21.7969C3.66196 22.4061 4.48807 22.7489 5.34973 22.7498H21.5997C22.4614 22.7489 23.2875 22.4061 23.8968 21.7969C24.5061 21.1876 24.8488 20.3615 24.8497 19.4998V9.7498C24.8488 8.88813 24.5061 8.06203 23.8968 7.45274C23.2875 6.84345 22.4614 6.50074 21.5997 6.4998ZM19.1876 16.2498C18.8662 16.2498 18.552 16.1545 18.2848 15.9759C18.0176 15.7974 17.8093 15.5436 17.6863 15.2467C17.5633 14.9497 17.5311 14.623 17.5938 14.3078C17.6565 13.9926 17.8113 13.703 18.0386 13.4757C18.2658 13.2485 18.5554 13.0937 18.8706 13.031C19.1858 12.9683 19.5125 13.0005 19.8095 13.1235C20.1064 13.2465 20.3602 13.4548 20.5388 13.722C20.7173 13.9892 20.8126 14.3034 20.8126 14.6248C20.8126 15.0558 20.6414 15.4691 20.3367 15.7738C20.0319 16.0786 19.6186 16.2498 19.1876 16.2498Z" fill="white"/>
<path d="M2.125 13.1749V8.12218C2.125 7.02175 2.73437 5.17687 4.84941 4.77722C6.64453 4.44054 8.42187 4.44054 8.42187 4.44054C8.42187 4.44054 9.58984 5.25304 8.625 5.25304C7.66015 5.25304 7.68555 6.49718 8.625 6.49718C9.56445 6.49718 8.625 7.69054 8.625 7.69054L4.8418 11.9816L2.125 13.1749Z" fill="white"/>
</svg>
