<svg width="15" height="14" viewBox="0 0 15 14" fill="none" xmlns="http://www.w3.org/2000/svg">
<path d="M13.9935 0.621536C13.9881 0.595625 13.9755 0.571776 13.9571 0.552785C13.9387 0.533793 13.9152 0.520447 13.8895 0.514309C12.1736 0.0947781 8.20883 1.5898 6.06079 3.73696C5.67766 4.11699 5.32839 4.52968 5.01694 4.97036C4.35454 4.91177 3.69213 4.96069 3.12758 5.20679C1.53471 5.90786 1.07094 7.73716 0.941746 8.52407C0.934417 8.56714 0.937181 8.61133 0.949821 8.65315C0.96246 8.69497 0.98463 8.73329 1.01459 8.76509C1.04454 8.79689 1.08147 8.82131 1.12246 8.83643C1.16346 8.85154 1.2074 8.85694 1.25083 8.8522L3.80874 8.57007C3.81056 8.76292 3.8222 8.95555 3.8436 9.14722C3.85647 9.28032 3.91556 9.4047 4.01059 9.49878L5.00112 10.487C5.09528 10.5819 5.21962 10.6409 5.35268 10.654C5.54328 10.6753 5.73483 10.6869 5.92661 10.6888L5.64594 13.2435C5.64126 13.2869 5.6467 13.3308 5.66184 13.3718C5.67697 13.4128 5.70139 13.4497 5.73318 13.4796C5.76497 13.5095 5.80326 13.5317 5.84505 13.5444C5.88685 13.557 5.93101 13.5599 5.97407 13.5526C6.75952 13.4266 8.59204 12.9628 9.28901 11.37C9.5351 10.8054 9.58549 10.1462 9.52866 9.48706C9.9704 9.17558 10.3842 8.82622 10.7653 8.44292C12.9201 6.29897 14.4066 2.42271 13.9935 0.621536ZM8.61547 5.8853C8.41871 5.68867 8.28469 5.4381 8.23035 5.16529C8.17602 4.89248 8.20381 4.60969 8.31022 4.35267C8.41663 4.09566 8.59687 3.87598 8.82815 3.72142C9.05943 3.56686 9.33135 3.48436 9.60952 3.48436C9.88768 3.48436 10.1596 3.56686 10.3909 3.72142C10.6222 3.87598 10.8024 4.09566 10.9088 4.35267C11.0152 4.60969 11.043 4.89248 10.9887 5.16529C10.9343 5.4381 10.8003 5.68867 10.6036 5.8853C10.4731 6.01596 10.3181 6.11962 10.1476 6.19034C9.977 6.26106 9.79416 6.29746 9.60952 6.29746C9.42487 6.29746 9.24203 6.26106 9.07146 6.19034C8.9009 6.11962 8.74595 6.01596 8.61547 5.8853Z" fill="#3182CE"/>
</svg>
